<?xml version="1.0" encoding="utf-8"?>
<!-- Generator: Adobe Illustrator 26.0.0, SVG Export Plug-In . SVG Version: 6.00 Build 0)  -->
<svg version="1.1" id="Camada_1" xmlns="http://www.w3.org/2000/svg" xmlns:xlink="http://www.w3.org/1999/xlink" x="0px" y="0px"
	 viewBox="0 0 1080 781.4" style="enable-background:new 0 0 1080 781.4;" xml:space="preserve">
<style type="text/css">
	.st0{fill:#191919;}
	.st1{fill:#191919;stroke:#1D1D1B;stroke-miterlimit:10;}
	.st2{fill:url(#SVGID_1_);}
</style>
<path class="st0" d="M136.7,766.2c38.3,4.2,91.2,6.9,153.4,0.6C412.1,754.3,498,714.2,515,706.1c100.1-47.8,161.2-109.5,202.3-150.9
	c58.7-59.2,92.4-111,103-127.6c24.3-38.5,41.4-73.7,53.2-101.1c-21.1,31.5-52.4,74.4-95.8,120.6C734.8,492.5,665,565.5,551.4,621.4
	c-90.3,44.5-167.2,59.7-206.6,65.1c-17.5,2.4-27.5,3.1-27.4,3.4c0.3,1.5,110-0.2,226.5-64.8c92.1-51.1,145.1-117.6,170.4-150
	c35.5-45.5,58.7-88.3,73.6-120.2C742,412.7,666.3,491.1,552.8,548.6c-37.5,19.1-73.6,32.9-106.6,43.3c21.6-11.2,55.6-29.7,94.6-56.1
	c116.8-78.7,189.5-166.4,238.1-225.7c39.7-48.4,69.9-91.9,91.1-124.4c55.2-51.3,110.3-102.6,165.5-153.9
	c-59,12.7-120.9,27.9-185.1,45.8c-71.6,20-139.1,41.4-202,63.4c-8.8,5-14.1,6.7-15.6,5c-5.4-5.7,30.6-49.8,107.8-132.1
	c-54.6,17.9-111.6,38.3-170.6,61.6c-49.8,19.7-97.1,39.9-141.9,60.3c21.6-29.9,43.3-59.9,65-89.8c-39.2,24.7-68.8,47.5-88.1,63.3
	c-42.5,34.8-47.1,45.3-90.2,79.1c-40.5,31.8-44,28.4-83.4,60.3c-9,7.3-38.5,31.5-73.6,67.5c-31.2,32.1-46.8,48.1-63.3,73.6
	C83.2,407.1,61.9,440.7,51.3,490c-4.7,22-13.8,77.2,4.6,135.8c5.7,17.8,13.7,35.6,18.8,47c9.2,20.3,17.2,38,31.6,58.1
	C117.6,746.8,128.7,758.6,136.7,766.2z"/>
<path class="st1" d="M53.8,419.6c9-18.7,21.4-40.4,38.2-63.3c15.6-21.2,31.4-38.3,45.6-51.9c8.1-26.1,19.4-56.2,35.3-88.4
	c14.4-28.9,29.5-53.8,43.9-74.7c-32.1,29-76,75.8-112.3,143.1C76.9,335.7,62.2,383.2,53.8,419.6z"/>
<linearGradient id="SVGID_1_" gradientUnits="userSpaceOnUse" x1="26.3304" y1="623.4206" x2="961.5676" y2="-68.1283">
	<stop  offset="2.503482e-03" style="stop-color:#F24148"/>
	<stop  offset="0.5138" style="stop-color:#E72C03"/>
	<stop  offset="0.8019" style="stop-color:#F66F01"/>
	<stop  offset="1" style="stop-color:#FF9800"/>
</linearGradient>
<path class="st2" d="M136.7,766.2c2.1-46,11.8-120.4,54.2-197.9c44.8-81.7,103.2-125,175.3-178.3
	c115.4-85.4,222.1-124.5,286.5-147.5c87.4-31.3,163.4-47.7,217.2-56.9c27.7-25.3,55.3-50.7,82.7-76.1c27.8-25.8,55.4-51.7,82.8-77.8
	c-68.1,14.7-127.3,29.8-175.8,43.2c-55,15.1-107.4,31.1-157.1,47.5c-12.8,3.8-32.3,10.1-56.2,19.5c-9.1,3.6-12.5,5.2-13.7,3.9
	c-3.5-3.7,13.1-29.7,107.8-132.1C712.6,23,671.7,37,622.5,55.1c-116.9,43.1-188.2,75.9-220,90.9c0,0-62.6,29.6-124.2,68.5
	c-13.7,8.6-25.6,17.2-26.6,18c-14.2,10.2-25.2,19.5-36.8,29.6c-24.8,21.7-52.4,45.8-84.5,82.2c-15.4,17.5-23.2,26.3-32.1,39.2
	c-30.6,44.1-41.9,84.8-44.2,93.9c-15.9,60.1-7.6,108.6-5.4,120.2c3.1,15.9,6.7,27.2,10.6,39.2c7.1,21.6,21,62.8,54.1,104.2
	C122.4,751.7,130.7,760.3,136.7,766.2z"/>
</svg>
